<svg width="260" height="260" viewBox="0 0 260 260" fill="none" xmlns="http://www.w3.org/2000/svg">
<g clip-path="url(#clip0)">
<rect width="260" height="260" fill="white"/>
<rect width="260" height="260" fill="#424242"/>
<path d="M128.099 149.779V47.2421H91.3139V146.561C91.3139 164.953 87.6355 178.977 73.1515 178.977C58.6676 178.977 54.9891 164.953 54.9891 146.561V47.2421H17.9746V149.779C17.9746 185.874 32.6884 214.382 72.4618 214.382C112.235 214.382 128.099 185.644 128.099 149.779ZM246.282 210.014L205.819 124.49L242.833 47.2421H205.129L184.897 96.6714L164.896 47.2421H126.502L163.286 124.72L123.283 210.014H161.677L183.978 156.217L206.508 210.014H246.282Z" fill="white"/>
</g>
<defs>
<clipPath id="clip0">
<rect width="260" height="260" fill="white"/>
</clipPath>
</defs>
</svg>
