<svg width="205" height="25" viewBox="0 0 205 25" fill="none" xmlns="http://www.w3.org/2000/svg">
<path d="M21.545 15.5055C21.545 18.4053 20.6624 20.6274 18.8974 22.1719C17.1323 23.7163 14.5319 24.4886 11.0963 24.4886C7.6607 24.4886 5.06035 23.7163 3.29526 22.1719C1.54068 20.6274 0.663389 18.4106 0.663389 15.5213V0.533808H6.74663V15.1746C6.74663 16.8031 7.08809 18.0166 7.77101 18.8151C8.45393 19.6136 9.56237 20.0128 11.0963 20.0128C12.6092 20.0128 13.7124 19.6293 14.4058 18.8623C15.1098 18.0954 15.4617 16.8661 15.4617 15.1746V0.533808H21.545V15.5055ZM48.5571 24H42.726L32.7659 7.89359V24H27.2185V0.533808H34.4522L43.0097 13.9768V0.533808H48.5571V24ZM76.7197 12.2905C76.7197 14.4759 76.2206 16.4353 75.2225 18.1689C74.2244 19.892 72.9636 21.2158 71.4402 22.1404C70.295 22.8338 69.0395 23.3171 67.6736 23.5902C66.3078 23.8634 64.6898 24 62.8196 24H54.5458V0.533808H63.056C64.9682 0.533808 66.6177 0.696658 68.0046 1.02236C69.3914 1.33755 70.5577 1.78933 71.5032 2.37769C73.1212 3.3653 74.3925 4.69962 75.3171 6.38066C76.2522 8.05118 76.7197 10.0211 76.7197 12.2905ZM70.4631 12.2433C70.4631 10.6988 70.1794 9.38025 69.6121 8.28758C69.0552 7.1844 68.1674 6.32287 66.9487 5.70299C66.3288 5.3983 65.6932 5.19343 65.0418 5.08836C64.4009 4.97279 63.429 4.915 62.1262 4.915H60.5975V19.603H62.1262C63.5656 19.603 64.6215 19.54 65.2939 19.4139C65.9663 19.2773 66.623 19.0357 67.2639 18.689C68.3671 18.0586 69.1761 17.2181 69.6909 16.1674C70.2057 15.1063 70.4631 13.7982 70.4631 12.2433ZM98.3105 24H81.3373V0.533808H98.3105V5.0726H87.3575V9.12284H97.5225V13.6616H87.3575V19.4612H98.3105V24ZM116.56 7.72023C116.56 7.13187 116.439 6.62756 116.198 6.2073C115.956 5.78704 115.541 5.45609 114.953 5.21444C114.543 5.04634 114.065 4.94652 113.519 4.915C112.972 4.87298 112.337 4.85197 111.612 4.85197H109.421V11.1716H111.281C112.247 11.1716 113.056 11.1243 113.708 11.0298C114.359 10.9352 114.905 10.7198 115.347 10.3836C115.767 10.0579 116.072 9.7007 116.261 9.31196C116.46 8.91271 116.56 8.38214 116.56 7.72023ZM126 24H118.609L112.211 15.3952H109.421V24H103.401V0.533808H113.55C114.937 0.533808 116.129 0.612607 117.128 0.770204C118.126 0.927801 119.061 1.26926 119.933 1.79458C120.815 2.31991 121.514 3.00283 122.029 3.84334C122.554 4.67336 122.817 5.71875 122.817 6.97953C122.817 8.71309 122.412 10.1262 121.603 11.2189C120.805 12.3116 119.66 13.2204 118.168 13.9453L126 24ZM150.822 12.2905C150.822 14.4759 150.323 16.4353 149.325 18.1689C148.327 19.892 147.066 21.2158 145.542 22.1404C144.397 22.8338 143.142 23.3171 141.776 23.5902C140.41 23.8634 138.792 24 136.922 24H128.648V0.533808H137.158C139.07 0.533808 140.72 0.696658 142.107 1.02236C143.494 1.33755 144.66 1.78933 145.605 2.37769C147.223 3.3653 148.495 4.69962 149.419 6.38066C150.354 8.05118 150.822 10.0211 150.822 12.2905ZM144.565 12.2433C144.565 10.6988 144.282 9.38025 143.714 8.28758C143.157 7.1844 142.27 6.32287 141.051 5.70299C140.431 5.3983 139.795 5.19343 139.144 5.08836C138.503 4.97279 137.531 4.915 136.228 4.915H134.7V19.603H136.228C137.668 19.603 138.724 19.54 139.396 19.4139C140.068 19.2773 140.725 19.0357 141.366 18.689C142.469 18.0586 143.278 17.2181 143.793 16.1674C144.308 15.1063 144.565 13.7982 144.565 12.2433ZM178.259 12.2748C178.259 16.0151 177.188 18.9884 175.044 21.1948C172.901 23.3906 169.938 24.4886 166.156 24.4886C162.384 24.4886 159.427 23.3906 157.283 21.1948C155.14 18.9884 154.068 16.0151 154.068 12.2748C154.068 8.50296 155.14 5.52438 157.283 3.33903C159.427 1.14318 162.384 0.0452574 166.156 0.0452574C169.917 0.0452574 172.875 1.14318 175.029 3.33903C177.183 5.52438 178.259 8.50296 178.259 12.2748ZM170.238 18.2162C170.826 17.5018 171.262 16.6612 171.546 15.6946C171.829 14.7175 171.971 13.5723 171.971 12.259C171.971 10.8512 171.808 9.65342 171.483 8.66581C171.157 7.67821 170.732 6.87971 170.206 6.27034C169.67 5.63995 169.051 5.18292 168.347 4.89924C167.653 4.61557 166.928 4.47373 166.172 4.47373C165.405 4.47373 164.68 4.61032 163.997 4.88349C163.324 5.15665 162.705 5.60843 162.137 6.23882C161.612 6.82718 161.181 7.64143 160.845 8.68157C160.519 9.71121 160.356 10.9089 160.356 12.2748C160.356 13.6721 160.514 14.8646 160.829 15.8522C161.155 16.8293 161.58 17.6278 162.106 18.2477C162.631 18.8676 163.246 19.3246 163.95 19.6188C164.654 19.913 165.394 20.0601 166.172 20.0601C166.949 20.0601 167.69 19.913 168.394 19.6188C169.098 19.3141 169.712 18.8466 170.238 18.2162ZM204.168 24H197.171L192.112 16.2777L186.959 24H180.277L188.598 12.1802L180.45 0.533808H187.432L192.317 7.84631L197.344 0.533808H204.042L195.847 11.9438L204.168 24Z" fill="white"/>
</svg>
